<svg width="150" height="51" viewBox="0 0 150 51" fill="none" xmlns="http://www.w3.org/2000/svg">
<path d="M35.0176 27.2441C34.9953 23.1474 36.8425 20.0553 40.5812 17.7781C38.4893 14.7753 35.3291 13.1232 31.1564 12.7995C27.2062 12.487 22.8888 15.1102 21.3088 15.1102C19.6397 15.1102 15.8119 12.9112 12.8075 12.9112C6.59848 13.0116 0 17.8786 0 27.7799C0 30.7046 0.53411 33.726 1.60233 36.8441C3.02662 40.9408 8.16743 50.9873 13.5308 50.8198C16.3349 50.7529 18.3155 48.8217 21.9653 48.8217C25.5037 48.8217 27.3397 50.8198 30.4665 50.8198C35.8744 50.7417 40.5256 41.6106 41.8831 37.5027C34.6281 34.0757 35.0176 27.4562 35.0176 27.2441ZM28.7195 8.91489C31.7573 5.29816 31.4791 2.00515 31.3901 0.821899C28.7084 0.978178 25.6039 2.65259 23.8347 4.7177C21.8874 6.92792 20.7413 9.66279 20.9861 12.7437C23.8903 12.967 26.5386 11.4712 28.7195 8.91489Z" fill="white"/>
<path d="M58.5456 33.6668L55.6302 42.54H51.8828L61.4245 14.3409H65.7975L75.3756 42.54H71.5006L68.5002 33.6668H58.5456ZM67.7532 30.8188L65.0079 22.7018C64.3823 20.8601 63.9693 19.1891 63.5502 17.5548H63.4713C63.0522 19.2257 62.5967 20.9394 62.0561 22.6591L59.3108 30.8127L67.7532 30.8188ZM78.218 28.8978C78.218 26.306 78.1391 24.2081 78.048 22.2871H81.3399L81.5099 25.7632H81.5889C83.0891 23.2934 85.4638 21.8298 88.7557 21.8298C93.6329 21.8298 97.2953 25.9706 97.2953 32.1239C97.2953 39.4054 92.8797 42.9973 88.1302 42.9973C85.4638 42.9973 83.1316 41.8264 81.9229 39.8201H81.844V50.8216H78.218V28.8978ZM81.8379 34.2949C81.8379 34.8438 81.9168 35.3377 82.008 35.8012C82.676 38.3504 84.8808 40.1128 87.5107 40.1128C91.3856 40.1128 93.6389 36.9355 93.6389 32.2885C93.6389 28.227 91.5132 24.7631 87.6382 24.7631C85.1419 24.7631 82.8097 26.5621 82.093 29.3247C81.9654 29.7821 81.844 30.3309 81.844 30.831L81.8379 34.2949ZM101.085 28.8978C101.085 26.306 101.006 24.2081 100.915 22.2871H104.207L104.377 25.7632H104.456C105.956 23.2934 108.331 21.8298 111.623 21.8298C116.5 21.8298 120.162 25.9706 120.162 32.1239C120.162 39.4054 115.747 42.9973 110.997 42.9973C108.331 42.9973 105.999 41.8264 104.79 39.8201H104.711V50.8216H101.085V28.8978ZM104.711 34.2949C104.711 34.8438 104.79 35.3377 104.881 35.8012C105.549 38.3504 107.754 40.1128 110.384 40.1128C114.259 40.1128 116.512 36.9355 116.512 32.2885C116.512 28.227 114.386 24.7631 110.511 24.7631C108.015 24.7631 105.683 26.5621 104.966 29.3247C104.839 29.7821 104.717 30.3309 104.717 30.831L104.711 34.2949ZM123.958 12.8346H127.627V42.5339H123.958V12.8346ZM135 33.0813C135.079 38.0576 138.25 40.1128 141.912 40.1128C144.536 40.1128 146.121 39.6554 147.494 39.07L148.119 41.7045C146.832 42.2899 144.621 42.9608 141.414 42.9608C135.207 42.9608 131.496 38.8626 131.496 32.752C131.496 26.6414 135.079 21.8298 140.952 21.8298C147.536 21.8298 149.285 27.6415 149.285 31.3677C149.285 32.1239 149.206 32.7032 149.158 33.0813H135ZM145.751 30.4468C145.793 28.105 144.791 24.4643 140.667 24.4643C136.956 24.4643 135.334 27.8977 135.043 30.4468H145.751Z" fill="white"/>
</svg>
