<svg width="150" height="62" viewBox="0 0 150 62" fill="none" xmlns="http://www.w3.org/2000/svg">
<g clip-path="url(#clip0_3126_422)">
<path d="M138.781 43.1755C138.38 43.1755 138.104 42.8973 138.104 42.4973V22.6238H131.352C130.951 22.6238 130.674 22.3468 130.674 21.9463V19.2049C130.674 18.8035 130.951 18.5258 131.352 18.5258H149.323C149.724 18.5258 150 18.8038 150 19.2049V21.9461C150 22.3463 149.724 22.6238 149.323 22.6238H142.572V42.497C142.572 42.8973 142.295 43.1755 141.895 43.1755H138.781ZM87.0649 33.2535L83.5209 23.0865L79.9451 33.2535H87.0649ZM94.9252 42.3725C95.0801 42.7741 94.833 43.1755 94.4014 43.1755H91.1963C90.7337 43.1755 90.456 42.9605 90.3014 42.5271L88.4835 37.2909H78.5283L76.7073 42.5271C76.5543 42.9606 76.2759 43.1755 75.8144 43.1755H72.7947C72.3934 43.1755 72.1155 42.7739 72.2698 42.3725L80.6229 19.1433C80.7775 18.7105 81.0548 18.5268 81.5162 18.5268H85.6467C86.1095 18.5268 86.4178 18.7107 86.5718 19.1433L94.9252 42.3725ZM118.868 39.8472C120.84 39.8472 122.166 38.8937 123.246 37.2599L118.253 31.8981C116.341 32.9773 115.107 34.0543 115.107 36.2117C115.108 38.3381 116.833 39.8472 118.868 39.8472ZM120.255 21.7917C118.653 21.7917 117.728 22.8094 117.728 24.1649C117.728 25.2123 118.282 26.1368 119.546 27.4928C121.735 26.2287 122.66 25.4588 122.66 24.1035C122.66 22.8392 121.859 21.7917 120.255 21.7917ZM133.911 42.3127C134.312 42.7444 134.066 43.1755 133.571 43.1755H129.656C129.133 43.1755 128.855 43.0516 128.516 42.6507L126.174 40.0636C124.602 42.159 122.412 43.7299 118.775 43.7299C114.275 43.7299 110.73 41.0187 110.73 36.3671C110.73 32.7918 112.642 30.8811 115.54 29.2792C114.12 27.6464 113.474 25.9208 113.474 24.4118C113.474 20.5902 116.156 17.9717 120.193 17.9717C124.324 17.9717 126.852 20.4067 126.852 24.0108C126.852 27.092 124.633 28.8159 122.289 30.1109L125.742 33.8403L127.684 30.4498C127.93 30.0499 128.208 29.8953 128.7 29.8953H131.689C132.183 29.8953 132.461 30.2351 132.154 30.7586L128.701 36.6734L133.911 42.3127ZM103.15 43.1755C103.551 43.1755 103.829 42.8973 103.829 42.4973V22.6238H110.579C110.98 22.6238 111.257 22.3468 111.257 21.9463V19.2049C111.257 18.8035 110.98 18.5258 110.579 18.5258H92.6079C92.2066 18.5258 91.9298 18.8038 91.9298 19.2049V21.9461C91.9298 22.3463 92.2068 22.6238 92.6079 22.6238H99.3573V42.497C99.3573 42.8973 99.6356 43.1755 100.036 43.1755H103.15Z" fill="white"/>
<path d="M11.9259 55.1627C17.1534 59.2092 23.7147 61.6404 30.8335 61.6404C38.6238 61.6404 45.7257 58.7482 51.1459 54.0006C51.2116 53.9426 51.1792 53.9042 51.1144 53.9426C48.6822 55.5669 41.7501 59.1126 30.8338 59.1126C21.347 59.1126 15.3517 56.996 11.9661 55.1062C11.9013 55.0743 11.8773 55.1229 11.9259 55.1627ZM32.9265 56.7382C40.5142 56.7382 48.8521 54.6698 53.8389 50.5756C55.2035 49.4601 56.5034 47.9754 57.6675 45.9801C58.3377 44.832 58.9932 43.468 59.527 42.1272C59.5507 42.0619 59.5104 42.0301 59.4612 42.1035C54.8238 48.9277 41.395 53.1842 27.5291 53.1842C17.7282 53.1842 7.1825 50.0502 3.05379 44.0659C3.01315 44.0105 2.97251 44.0342 2.99726 44.0978C6.84344 52.2725 18.5118 56.7382 32.9265 56.7382ZM24.6362 43.1768C8.8553 43.1768 1.41428 35.8271 0.0644829 30.8116C0.0478373 30.739 0 30.7549 0 30.8201C0 32.5086 0.169005 34.6876 0.459778 36.134C0.598491 36.838 1.17149 37.9429 2.01157 38.8236C5.83285 42.8065 15.3598 48.3876 31.8591 48.3876C54.3386 48.3876 59.4784 40.8997 60.528 38.4373C61.2786 36.6762 61.6674 33.4937 61.6674 30.8203C61.6674 30.1734 61.6512 29.6566 61.6268 29.1493C61.6268 29.067 61.5791 29.0602 61.5626 29.1405C60.4392 35.1658 41.2331 43.1768 24.6362 43.1768ZM2.97251 17.5982C2.06825 19.3927 1.06592 22.4202 0.767946 23.9871C0.637331 24.6584 0.692966 24.9808 0.928404 25.4818C2.81985 29.4948 12.3872 35.9156 34.704 35.9156C48.3188 35.9156 58.8952 32.5709 60.6087 26.4672C60.9242 25.3436 60.9412 24.1573 60.5358 22.5588C60.0829 20.7725 59.2348 18.6894 58.5169 17.2268C58.4932 17.1791 58.4514 17.1861 58.4599 17.2425C58.7265 25.2481 36.4009 30.4076 25.1363 30.4076C12.9348 30.4076 2.75537 25.5463 2.75537 19.408C2.75537 18.8183 2.87744 18.2283 3.0298 17.6144C3.04509 17.5583 2.99711 17.549 2.97251 17.5982ZM51.1958 7.76906C51.3254 7.9721 51.39 8.18879 51.39 8.48045C51.39 11.9048 40.9092 17.9628 24.225 17.9628C11.9661 17.9628 9.67094 13.4152 9.67094 10.5231C9.67094 9.48935 10.0674 8.43157 10.9407 7.35728C10.9883 7.2934 10.9478 7.26881 10.8928 7.31634C9.30024 8.66595 7.83692 10.1845 6.55326 11.8239C5.93993 12.5991 5.55918 13.2859 5.55918 13.6974C5.55918 19.6907 20.5876 24.0361 34.6396 24.0361C49.6123 24.0361 56.2945 19.1485 56.2945 14.8531C56.2945 13.318 55.6969 12.4219 54.1682 10.6845C53.1759 9.55428 52.2373 8.63401 51.2438 7.72812C51.1958 7.68853 51.1624 7.72078 51.1958 7.76906ZM46.6057 4.34542C41.9848 1.57574 36.6188 0 30.8338 0C25.0084 0 19.4807 1.63077 14.8432 4.47378C13.4522 5.32988 12.6692 6.01593 12.6692 6.89782C12.6692 9.49745 18.7449 12.2926 29.5239 12.2926C40.191 12.2926 48.4646 9.23098 48.4646 6.2839C48.4646 5.58046 47.8498 5.0883 46.6057 4.34542Z" fill="white"/>
</g>
<defs>
<clipPath id="clip0_3126_422">
<rect width="150" height="61.6438" fill="white"/>
</clipPath>
</defs>
</svg>
