<svg width="79" height="29" viewBox="0 0 79 29" fill="none" xmlns="http://www.w3.org/2000/svg">
<rect x="0.381579" y="0.881579" width="77.8421" height="27.2368" rx="7.25" stroke="#366AA1" stroke-width="0.763158"/>
<path d="M16.7895 14.3684H15.2632L22.1316 7.5L29 14.3684H27.4737M16.7895 14.3684V19.7105C16.7895 20.1153 16.9503 20.5036 17.2365 20.7898C17.5228 21.076 17.911 21.2368 18.3158 21.2368H25.9474C26.3522 21.2368 26.7404 21.076 27.0267 20.7898C27.3129 20.5036 27.4737 20.1153 27.4737 19.7105V14.3684" stroke="#436E9D" stroke-width="1.14474" stroke-linecap="round" stroke-linejoin="round"/>
<path d="M19.8423 21.2366V16.6577C19.8423 16.2529 20.0031 15.8646 20.2893 15.5784C20.5756 15.2922 20.9638 15.1313 21.3686 15.1313H22.8949C23.2997 15.1313 23.6879 15.2922 23.9742 15.5784C24.2604 15.8646 24.4212 16.2529 24.4212 16.6577V21.2366" stroke="#436E9D" stroke-width="1.14474" stroke-linecap="round" stroke-linejoin="round"/>
<path d="M40.5941 17.5V14.716H37.5995V17.5H36.5555V11.1353H37.5995V13.8643H40.5941V11.1353H41.6381V17.5H40.5941ZM47.8204 14.9724C47.8204 16.5567 46.6482 17.5824 45.2013 17.5824C43.7635 17.5824 42.6737 16.5567 42.6737 14.9724C42.6737 13.3881 43.8093 12.3716 45.2471 12.3716C46.6848 12.3716 47.8204 13.3881 47.8204 14.9724ZM43.736 14.9724C43.736 16.1172 44.4137 16.6758 45.2013 16.6758C45.9797 16.6758 46.7489 16.1172 46.7489 14.9724C46.7489 13.8277 46.0072 13.2782 45.2287 13.2782C44.4412 13.2782 43.736 13.8277 43.736 14.9724ZM56.0048 17.5V14.6794C56.0048 13.7544 55.5011 13.2782 54.741 13.2782C53.9717 13.2782 53.4681 13.7544 53.4681 14.6794V17.5H52.4332V14.6794C52.4332 13.7544 51.9295 13.2782 51.1694 13.2782C50.4002 13.2782 49.8965 13.7544 49.8965 14.6794V17.5H48.8525V12.454H49.8965V13.0309C50.2353 12.6188 50.7848 12.3716 51.3892 12.3716C52.1859 12.3716 52.8545 12.7104 53.2025 13.3698C53.5138 12.7562 54.2282 12.3716 54.9608 12.3716C56.1422 12.3716 57.0396 13.1134 57.0396 14.5237V17.5H56.0048ZM60.4927 13.2507C59.7876 13.2507 59.2198 13.7269 59.1099 14.5237H61.903C61.8847 13.7453 61.2712 13.2507 60.4927 13.2507ZM62.8555 15.9981C62.5716 16.8773 61.7748 17.5824 60.5385 17.5824C59.0916 17.5824 58.0201 16.5567 58.0201 14.9724C58.0201 13.3881 59.0458 12.3716 60.5385 12.3716C61.9763 12.3716 62.9928 13.3698 62.9928 14.8534C62.9928 15.0274 62.9837 15.1922 62.9562 15.3662H59.1007C59.174 16.1996 59.7693 16.7033 60.5385 16.7033C61.1796 16.7033 61.5367 16.3919 61.729 15.9981H62.8555Z" fill="#436E9D"/>
</svg>
