<svg width="158" height="168" viewBox="0 0 158 168" fill="none" xmlns="http://www.w3.org/2000/svg">
<path d="M15.872 151H3.104V128.152H15.872V130.68H5.984V137.816H15.296V140.312H5.984V148.472H15.872V151ZM26.9973 133.56C29.0879 133.56 30.6346 134.019 31.6373 134.936C32.6399 135.853 33.1413 137.315 33.1413 139.32V151H31.0933L30.5493 148.568H30.4213C29.9306 149.187 29.4186 149.709 28.8853 150.136C28.3733 150.541 27.7759 150.84 27.0933 151.032C26.4319 151.224 25.6213 151.32 24.6613 151.32C23.6373 151.32 22.7093 151.139 21.8773 150.776C21.0666 150.413 20.4266 149.859 19.9573 149.112C19.4879 148.344 19.2533 147.384 19.2533 146.232C19.2533 144.525 19.9253 143.213 21.2693 142.296C22.6133 141.357 24.6826 140.845 27.4773 140.76L30.3893 140.664V139.64C30.3893 138.211 30.0799 137.219 29.4613 136.664C28.8426 136.109 27.9679 135.832 26.8373 135.832C25.9413 135.832 25.0879 135.971 24.2773 136.248C23.4666 136.504 22.7093 136.803 22.0052 137.144L21.1413 135.032C21.8879 134.627 22.7733 134.285 23.7973 134.008C24.8213 133.709 25.8879 133.56 26.9973 133.56ZM27.8293 142.712C25.6959 142.797 24.2133 143.139 23.3813 143.736C22.5706 144.333 22.1653 145.176 22.1653 146.264C22.1653 147.224 22.4533 147.928 23.0293 148.376C23.6266 148.824 24.3839 149.048 25.3013 149.048C26.7519 149.048 27.9573 148.653 28.9173 147.864C29.8773 147.053 30.3573 145.816 30.3573 144.152V142.616L27.8293 142.712ZM49.6068 146.264C49.6068 147.373 49.3294 148.301 48.7748 149.048C48.2201 149.795 47.4308 150.36 46.4068 150.744C45.3828 151.128 44.1668 151.32 42.7588 151.32C41.5641 151.32 40.5294 151.224 39.6548 151.032C38.8014 150.84 38.0441 150.573 37.3828 150.232V147.672C38.0654 148.013 38.8868 148.333 39.8468 148.632C40.8281 148.909 41.8201 149.048 42.8228 149.048C44.2521 149.048 45.2868 148.824 45.9268 148.376C46.5668 147.907 46.8868 147.288 46.8868 146.52C46.8868 146.093 46.7694 145.709 46.5348 145.368C46.3001 145.027 45.8734 144.685 45.2548 144.344C44.6574 144.003 43.7934 143.619 42.6628 143.192C41.5534 142.765 40.6041 142.339 39.8148 141.912C39.0254 141.485 38.4174 140.973 37.9908 140.376C37.5641 139.779 37.3508 139.011 37.3508 138.072C37.3508 136.621 37.9374 135.501 39.1108 134.712C40.3054 133.923 41.8628 133.528 43.7828 133.528C44.8281 133.528 45.7988 133.635 46.6948 133.848C47.6121 134.04 48.4654 134.317 49.2548 134.68L48.2948 136.92C47.8254 136.707 47.3241 136.525 46.7908 136.376C46.2788 136.205 45.7561 136.077 45.2228 135.992C44.6894 135.885 44.1454 135.832 43.5908 135.832C42.4388 135.832 41.5534 136.024 40.9348 136.408C40.3374 136.771 40.0388 137.272 40.0388 137.912C40.0388 138.381 40.1774 138.787 40.4548 139.128C40.7321 139.448 41.1908 139.768 41.8308 140.088C42.4921 140.387 43.3668 140.749 44.4548 141.176C45.5428 141.581 46.4708 141.997 47.2388 142.424C48.0068 142.851 48.5934 143.373 48.9988 143.992C49.4041 144.589 49.6068 145.347 49.6068 146.264ZM60.3753 133.528C61.8473 133.528 63.1059 133.848 64.1513 134.488C65.2179 135.128 66.0286 136.035 66.5833 137.208C67.1593 138.36 67.4473 139.715 67.4473 141.272V142.968H55.7033C55.7459 144.909 56.2366 146.392 57.1753 147.416C58.1353 148.419 59.4686 148.92 61.1753 148.92C62.2633 148.92 63.2233 148.824 64.0553 148.632C64.9086 148.419 65.7833 148.12 66.6793 147.736V150.2C65.8046 150.584 64.9406 150.861 64.0873 151.032C63.2339 151.224 62.2206 151.32 61.0473 151.32C59.4259 151.32 57.9859 150.989 56.7273 150.328C55.4899 149.667 54.5193 148.685 53.8153 147.384C53.1326 146.061 52.7913 144.451 52.7913 142.552C52.7913 140.675 53.1006 139.064 53.7193 137.72C54.3593 136.376 55.2446 135.341 56.3753 134.616C57.5273 133.891 58.8606 133.528 60.3753 133.528ZM60.3433 135.832C58.9993 135.832 57.9326 136.269 57.1433 137.144C56.3753 137.997 55.9166 139.192 55.7673 140.728H64.5033C64.5033 139.747 64.3539 138.893 64.0553 138.168C63.7566 137.443 63.2979 136.877 62.6793 136.472C62.0819 136.045 61.3033 135.832 60.3433 135.832ZM91.8765 144.888C91.8765 146.253 91.5458 147.416 90.8845 148.376C90.2232 149.315 89.2738 150.04 88.0365 150.552C86.8205 151.064 85.3805 151.32 83.7165 151.32C82.8632 151.32 82.0418 151.277 81.2525 151.192C80.4845 151.107 79.7805 150.989 79.1405 150.84C78.5005 150.669 77.9352 150.467 77.4445 150.232V147.48C78.2125 147.821 79.1618 148.131 80.2925 148.408C81.4445 148.685 82.6285 148.824 83.8445 148.824C84.9752 148.824 85.9245 148.675 86.6925 148.376C87.4605 148.077 88.0365 147.651 88.4205 147.096C88.8045 146.541 88.9965 145.891 88.9965 145.144C88.9965 144.397 88.8365 143.768 88.5165 143.256C88.1965 142.744 87.6418 142.275 86.8525 141.848C86.0845 141.4 85.0072 140.931 83.6205 140.44C82.6392 140.077 81.7752 139.693 81.0285 139.288C80.3032 138.861 79.6952 138.381 79.2045 137.848C78.7138 137.315 78.3405 136.707 78.0845 136.024C77.8498 135.341 77.7325 134.552 77.7325 133.656C77.7325 132.44 78.0418 131.405 78.6605 130.552C79.2792 129.677 80.1325 129.005 81.2205 128.536C82.3298 128.067 83.5992 127.832 85.0285 127.832C86.2872 127.832 87.4392 127.949 88.4845 128.184C89.5298 128.419 90.4792 128.728 91.3325 129.112L90.4365 131.576C89.6472 131.235 88.7832 130.947 87.8445 130.712C86.9272 130.477 85.9672 130.36 84.9645 130.36C84.0045 130.36 83.2045 130.499 82.5645 130.776C81.9245 131.053 81.4445 131.448 81.1245 131.96C80.8045 132.451 80.6445 133.027 80.6445 133.688C80.6445 134.456 80.8045 135.096 81.1245 135.608C81.4445 136.12 81.9672 136.579 82.6925 136.984C83.4178 137.389 84.3992 137.827 85.6365 138.296C86.9805 138.787 88.1112 139.32 89.0285 139.896C89.9672 140.451 90.6712 141.123 91.1405 141.912C91.6312 142.701 91.8765 143.693 91.8765 144.888ZM98.911 133.816C98.911 134.221 98.8897 134.637 98.847 135.064C98.8257 135.491 98.7937 135.875 98.751 136.216H98.943C99.3057 135.619 99.7643 135.128 100.319 134.744C100.874 134.36 101.492 134.072 102.175 133.88C102.858 133.667 103.562 133.56 104.287 133.56C105.674 133.56 106.826 133.784 107.743 134.232C108.682 134.659 109.386 135.331 109.855 136.248C110.324 137.165 110.559 138.36 110.559 139.832V151H107.775V140.024C107.775 138.637 107.466 137.603 106.847 136.92C106.228 136.237 105.258 135.896 103.935 135.896C102.655 135.896 101.652 136.141 100.927 136.632C100.202 137.101 99.679 137.805 99.359 138.744C99.0603 139.661 98.911 140.792 98.911 142.136V151H96.095V126.68H98.911V133.816ZM130.788 142.392C130.788 143.821 130.596 145.091 130.212 146.2C129.85 147.288 129.316 148.216 128.612 148.984C127.93 149.752 127.087 150.339 126.084 150.744C125.103 151.128 124.004 151.32 122.788 151.32C121.658 151.32 120.612 151.128 119.652 150.744C118.692 150.339 117.86 149.752 117.156 148.984C116.452 148.216 115.898 147.288 115.492 146.2C115.108 145.091 114.916 143.821 114.916 142.392C114.916 140.493 115.236 138.893 115.876 137.592C116.516 136.269 117.434 135.267 118.628 134.584C119.823 133.88 121.242 133.528 122.884 133.528C124.442 133.528 125.807 133.88 126.98 134.584C128.175 135.267 129.103 136.269 129.764 137.592C130.447 138.893 130.788 140.493 130.788 142.392ZM117.828 142.392C117.828 143.736 117.999 144.909 118.34 145.912C118.703 146.893 119.258 147.651 120.004 148.184C120.751 148.717 121.7 148.984 122.852 148.984C124.004 148.984 124.954 148.717 125.7 148.184C126.447 147.651 126.991 146.893 127.332 145.912C127.695 144.909 127.876 143.736 127.876 142.392C127.876 141.027 127.695 139.864 127.332 138.904C126.97 137.944 126.415 137.208 125.668 136.696C124.943 136.163 123.994 135.896 122.82 135.896C121.071 135.896 119.802 136.472 119.012 137.624C118.223 138.776 117.828 140.365 117.828 142.392ZM143.251 133.528C143.571 133.528 143.913 133.549 144.275 133.592C144.659 133.613 144.99 133.656 145.267 133.72L144.915 136.312C144.638 136.248 144.329 136.195 143.987 136.152C143.667 136.109 143.358 136.088 143.059 136.088C142.398 136.088 141.769 136.227 141.171 136.504C140.574 136.781 140.041 137.176 139.571 137.688C139.102 138.179 138.729 138.776 138.451 139.48C138.195 140.184 138.067 140.973 138.067 141.848V151H135.251V133.848H137.555L137.875 136.984H138.003C138.366 136.344 138.803 135.768 139.315 135.256C139.827 134.723 140.414 134.307 141.075 134.008C141.737 133.688 142.462 133.528 143.251 133.528ZM154.198 149.016C154.625 149.016 155.062 148.984 155.51 148.92C155.958 148.835 156.321 148.749 156.598 148.664V150.808C156.299 150.957 155.873 151.075 155.318 151.16C154.763 151.267 154.23 151.32 153.718 151.32C152.822 151.32 151.99 151.171 151.222 150.872C150.475 150.552 149.867 150.008 149.398 149.24C148.929 148.472 148.694 147.395 148.694 146.008V136.024H146.262V134.68L148.726 133.56L149.846 129.912H151.51V133.848H156.47V136.024H151.51V145.944C151.51 146.989 151.755 147.768 152.246 148.28C152.758 148.771 153.409 149.016 154.198 149.016Z" fill="white"/>
<path d="M135.003 41.4964C135.003 41.4964 141.678 78.4588 105.106 92.1924C91.0587 97.4698 63.4351 93.0686 53.1351 71.0215C44.4118 52.3569 49.3058 34.65 63.5375 25.9087C72.015 20.6923 85.5504 22.4243 92.5126 29.0466C104.656 40.6406 101.748 55.5356 94.5399 63.8491C81.1273 79.335 65.0937 77.9291 65.0937 77.9291C65.0937 77.9291 102.854 87.7096 115.816 55.9432C130.723 19.3883 87.4752 -18.1854 45.8452 9.66883C20.9245 26.3569 13.5937 63.3601 33.2108 90.0733C52.8279 116.786 91.1816 118.967 112.703 102.768C131.173 88.8711 141.596 64.9902 135.023 41.4964H135.003Z" fill="white"/>
</svg>
