<svg width="87" height="92" viewBox="0 0 87 92" fill="none" xmlns="http://www.w3.org/2000/svg">
<path d="M8.69181 82.9048H1.69981V70.3928H8.69181V71.7772H3.27695V75.685H8.37638V77.0518H3.27695V81.5204H8.69181V82.9048ZM14.7842 73.3543C15.9291 73.3543 16.7761 73.6055 17.3252 74.1078C17.8742 74.6102 18.1488 75.4104 18.1488 76.5086V82.9048H17.0273L16.7294 81.573H16.6593C16.3906 81.9118 16.1102 82.198 15.8181 82.4316C15.5377 82.6536 15.2106 82.8172 14.8368 82.9223C14.4746 83.0275 14.0307 83.08 13.505 83.08C12.9442 83.08 12.436 82.9807 11.9804 82.7821C11.5365 82.5835 11.186 82.2798 10.929 81.8709C10.672 81.4503 10.5434 80.9246 10.5434 80.2937C10.5434 79.3591 10.9114 78.6407 11.6474 78.1383C12.3834 77.6243 13.5167 77.3439 15.0471 77.2972L16.6417 77.2446V76.6838C16.6417 75.9011 16.4723 75.3579 16.1335 75.0541C15.7947 74.7504 15.3158 74.5985 14.6966 74.5985C14.2059 74.5985 13.7386 74.6744 13.2947 74.8263C12.8507 74.9665 12.436 75.1301 12.0505 75.317L11.5774 74.1604C11.9862 73.9384 12.4711 73.7515 13.0318 73.5996C13.5926 73.4361 14.1767 73.3543 14.7842 73.3543ZM15.2398 78.3661C14.0716 78.4128 13.2596 78.5998 12.804 78.9269C12.3601 79.254 12.1381 79.7155 12.1381 80.3113C12.1381 80.837 12.2958 81.2225 12.6113 81.4678C12.9384 81.7132 13.3531 81.8358 13.8554 81.8358C14.6499 81.8358 15.3099 81.6197 15.8356 81.1875C16.3614 80.7435 16.6242 80.0659 16.6242 79.1547V78.3135L15.2398 78.3661ZM27.1656 80.3113C27.1656 80.9188 27.0137 81.4269 26.71 81.8358C26.4062 82.2447 25.974 82.5543 25.4132 82.7646C24.8525 82.9749 24.1866 83.08 23.4155 83.08C22.7613 83.08 22.1947 83.0275 21.7157 82.9223C21.2484 82.8172 20.8337 82.6711 20.4715 82.4842V81.0823C20.8453 81.2692 21.2951 81.4445 21.8208 81.608C22.3582 81.7599 22.9015 81.8358 23.4506 81.8358C24.2333 81.8358 24.7999 81.7132 25.1504 81.4678C25.5008 81.2108 25.6761 80.872 25.6761 80.4515C25.6761 80.2178 25.6118 80.0075 25.4833 79.8206C25.3548 79.6337 25.1212 79.4468 24.7824 79.2598C24.4553 79.0729 23.9821 78.8626 23.3629 78.629C22.7554 78.3953 22.2356 78.1617 21.8033 77.928C21.3711 77.6944 21.0381 77.414 20.8045 77.0869C20.5708 76.7598 20.454 76.3392 20.454 75.8252C20.454 75.0308 20.7753 74.4174 21.4178 73.9852C22.072 73.5529 22.9248 73.3368 23.9763 73.3368C24.5487 73.3368 25.0803 73.3952 25.5709 73.512C26.0733 73.6172 26.5406 73.769 26.9728 73.9676L26.4471 75.1943C26.1901 75.0775 25.9156 74.9782 25.6235 74.8964C25.3431 74.8029 25.0569 74.7328 24.7648 74.6861C24.4728 74.6277 24.1749 74.5985 23.8711 74.5985C23.2403 74.5985 22.7554 74.7036 22.4166 74.9139C22.0895 75.1125 21.926 75.3871 21.926 75.7375C21.926 75.9946 22.0019 76.2165 22.1538 76.4035C22.3057 76.5787 22.5568 76.7539 22.9073 76.9292C23.2695 77.0927 23.7485 77.2913 24.3443 77.525C24.9401 77.7469 25.4483 77.9748 25.8688 78.2084C26.2894 78.4421 26.6107 78.7283 26.8326 79.0671C27.0546 79.3942 27.1656 79.8089 27.1656 80.3113ZM33.0626 73.3368C33.8687 73.3368 34.558 73.512 35.1304 73.8625C35.7146 74.213 36.1585 74.7095 36.4623 75.352C36.7777 75.9829 36.9354 76.7247 36.9354 77.5775V78.5063H30.5042C30.5275 79.5694 30.7962 80.3814 31.3103 80.9421C31.836 81.4912 32.5661 81.7657 33.5007 81.7657C34.0965 81.7657 34.6223 81.7132 35.0779 81.608C35.5452 81.4912 36.0242 81.3276 36.5148 81.1174V82.4667C36.0358 82.677 35.5627 82.8288 35.0954 82.9223C34.6281 83.0275 34.0732 83.08 33.4306 83.08C32.5428 83.08 31.7542 82.8989 31.0649 82.5368C30.3873 82.1746 29.8558 81.6372 29.4703 80.9246C29.0964 80.2003 28.9095 79.3182 28.9095 78.2785C28.9095 77.2504 29.0789 76.3684 29.4177 75.6324C29.7682 74.8964 30.253 74.3298 30.8722 73.9326C31.503 73.5354 32.2332 73.3368 33.0626 73.3368ZM33.0451 74.5985C32.3091 74.5985 31.725 74.838 31.2927 75.317C30.8722 75.7843 30.621 76.4385 30.5392 77.2796H35.3232C35.3232 76.7422 35.2414 76.2749 35.0779 75.8777C34.9143 75.4805 34.6631 75.1709 34.3244 74.949C33.9972 74.7153 33.5708 74.5985 33.0451 74.5985ZM50.3133 79.5577C50.3133 80.3054 50.1322 80.9421 49.7701 81.4678C49.4079 81.9819 48.8881 82.3791 48.2105 82.6595C47.5446 82.9398 46.756 83.08 45.8447 83.08C45.3774 83.08 44.9277 83.0567 44.4954 83.0099C44.0748 82.9632 43.6893 82.8989 43.3388 82.8172C42.9884 82.7237 42.6788 82.6127 42.4101 82.4842V80.9772C42.8307 81.1641 43.3505 81.3335 43.9697 81.4854C44.6006 81.6372 45.2489 81.7132 45.9148 81.7132C46.534 81.7132 47.0539 81.6314 47.4745 81.4678C47.895 81.3043 48.2105 81.0706 48.4208 80.7669C48.631 80.4631 48.7362 80.1068 48.7362 79.6979C48.7362 79.289 48.6486 78.9444 48.4733 78.664C48.2981 78.3836 47.9943 78.1266 47.5621 77.893C47.1415 77.6476 46.5515 77.3906 45.7922 77.1219C45.2548 76.9233 44.7816 76.713 44.3727 76.4911C43.9755 76.2574 43.6426 75.9946 43.3739 75.7025C43.1052 75.4104 42.9007 75.0775 42.7606 74.7036C42.6321 74.3298 42.5678 73.8975 42.5678 73.4069C42.5678 72.741 42.7372 72.1744 43.076 71.7071C43.4148 71.2281 43.8821 70.8601 44.4779 70.6031C45.0854 70.3461 45.7805 70.2175 46.5632 70.2175C47.2525 70.2175 47.8834 70.2818 48.4558 70.4103C49.0282 70.5388 49.5481 70.7082 50.0154 70.9185L49.5248 72.2678C49.0925 72.0809 48.6194 71.9232 48.1053 71.7947C47.603 71.6662 47.0773 71.6019 46.5282 71.6019C46.0025 71.6019 45.5644 71.6779 45.2139 71.8297C44.8634 71.9816 44.6006 72.1977 44.4253 72.4781C44.2501 72.7468 44.1625 73.0622 44.1625 73.4244C44.1625 73.845 44.2501 74.1955 44.4253 74.4758C44.6006 74.7562 44.8868 75.0074 45.284 75.2294C45.6812 75.4513 46.2186 75.6908 46.8962 75.9478C47.6322 76.2165 48.2514 76.5086 48.7537 76.824C49.2677 77.1278 49.6533 77.4958 49.9103 77.928C50.179 78.3603 50.3133 78.9035 50.3133 79.5577ZM54.1655 73.4945C54.1655 73.7165 54.1539 73.9443 54.1305 74.1779C54.1188 74.4116 54.1013 74.6219 54.0779 74.8088H54.1831C54.3817 74.4817 54.6329 74.213 54.9366 74.0027C55.2403 73.7924 55.5791 73.6347 55.953 73.5295C56.3268 73.4127 56.7123 73.3543 57.1095 73.3543C57.8689 73.3543 58.4998 73.477 59.0021 73.7223C59.5162 73.956 59.9017 74.324 60.1587 74.8263C60.4157 75.3287 60.5442 75.9829 60.5442 76.789V82.9048H59.0196V76.8941C59.0196 76.1348 58.8502 75.5681 58.5115 75.1943C58.1727 74.8205 57.6411 74.6335 56.9168 74.6335C56.2158 74.6335 55.6668 74.7679 55.2695 75.0366C54.8723 75.2936 54.5861 75.6791 54.4109 76.1932C54.2473 76.6955 54.1655 77.3147 54.1655 78.0507V82.9048H52.6235V69.5867H54.1655V73.4945ZM71.6221 78.1909C71.6221 78.9736 71.517 79.6687 71.3067 80.2762C71.1081 80.872 70.816 81.3802 70.4305 81.8008C70.0567 82.2214 69.5952 82.5426 69.0461 82.7646C68.5087 82.9749 67.9071 83.08 67.2412 83.08C66.622 83.08 66.0496 82.9749 65.5239 82.7646C64.9981 82.5426 64.5425 82.2214 64.157 81.8008C63.7715 81.3802 63.4677 80.872 63.2458 80.2762C63.0355 79.6687 62.9303 78.9736 62.9303 78.1909C62.9303 77.1511 63.1056 76.2749 63.456 75.5623C63.8065 74.838 64.3089 74.2889 64.9631 73.9151C65.6173 73.5295 66.3942 73.3368 67.2938 73.3368C68.1466 73.3368 68.8943 73.5295 69.5368 73.9151C70.191 74.2889 70.6992 74.838 71.0614 75.5623C71.4352 76.2749 71.6221 77.1511 71.6221 78.1909ZM64.525 78.1909C64.525 78.9269 64.6185 79.5694 64.8054 80.1185C65.004 80.6559 65.3077 81.0706 65.7166 81.3627C66.1255 81.6548 66.6454 81.8008 67.2762 81.8008C67.9071 81.8008 68.427 81.6548 68.8359 81.3627C69.2447 81.0706 69.5426 80.6559 69.7296 80.1185C69.9282 79.5694 70.0275 78.9269 70.0275 78.1909C70.0275 77.4432 69.9282 76.8065 69.7296 76.2808C69.531 75.7551 69.2272 75.352 68.8183 75.0716C68.4211 74.7796 67.9012 74.6335 67.2587 74.6335C66.3007 74.6335 65.6056 74.949 65.1734 75.5798C64.7411 76.2107 64.525 77.081 64.525 78.1909ZM78.4471 73.3368C78.6224 73.3368 78.8093 73.3485 79.0079 73.3718C79.2182 73.3835 79.3992 73.4069 79.5511 73.4419L79.3584 74.8614C79.2065 74.8263 79.0371 74.7971 78.8502 74.7737C78.6749 74.7504 78.5055 74.7387 78.342 74.7387C77.9798 74.7387 77.6352 74.8146 77.3081 74.9665C76.981 75.1184 76.6889 75.3345 76.4319 75.6149C76.1749 75.8836 75.9704 76.2107 75.8185 76.5962C75.6784 76.9817 75.6083 77.414 75.6083 77.893V82.9048H74.0662V73.512H75.3279L75.5031 75.2294H75.5732C75.7718 74.8789 76.0113 74.5635 76.2917 74.2831C76.5721 73.991 76.8933 73.7632 77.2555 73.5996C77.6177 73.4244 78.0149 73.3368 78.4471 73.3368ZM84.4418 81.8183C84.6754 81.8183 84.9149 81.8008 85.1602 81.7657C85.4056 81.719 85.6042 81.6723 85.756 81.6255V82.7996C85.5925 82.8814 85.3588 82.9457 85.0551 82.9924C84.7513 83.0508 84.4593 83.08 84.1789 83.08C83.6882 83.08 83.2326 82.9982 82.812 82.8347C82.4032 82.6595 82.0702 82.3615 81.8132 81.941C81.5562 81.5204 81.4277 80.9304 81.4277 80.1711V74.7036H80.0959V73.9676L81.4452 73.3543L82.0585 71.3566H82.9698V73.512H85.686V74.7036H82.9698V80.136C82.9698 80.7085 83.1041 81.1349 83.3728 81.4153C83.6532 81.684 84.0095 81.8183 84.4418 81.8183Z" fill="#0F0F0F"/>
<path d="M73.93 22.7242C73.93 22.7242 77.5857 42.9656 57.5581 50.4863C49.8655 53.3763 34.7382 50.9661 29.0978 38.8927C24.3207 28.6717 27.0008 18.975 34.7943 14.1881C39.4368 11.3315 46.849 12.28 50.6617 15.9065C57.3114 22.2556 55.719 30.4124 51.7718 34.965C44.4269 43.4454 35.6465 42.6754 35.6465 42.6754C35.6465 42.6754 56.3246 48.0315 63.4228 30.6355C71.5864 10.6174 47.9031 -9.95868 25.1057 5.29484C11.4587 14.4336 7.44416 34.6972 18.1869 49.3258C28.9296 63.9545 49.9328 65.1484 61.7183 56.2775C71.8331 48.6675 77.5408 35.5899 73.9412 22.7242H73.93Z" fill="url(#paint0_linear_3299_301)"/>
<defs>
<linearGradient id="paint0_linear_3299_301" x1="12.0476" y1="0" x2="87.5036" y2="34.8944" gradientUnits="userSpaceOnUse">
<stop stop-color="#1C75BC"/>
<stop offset="1" stop-color="#00A79D"/>
</linearGradient>
</defs>
</svg>
