<svg width="150" height="31" viewBox="0 0 150 31" fill="none" xmlns="http://www.w3.org/2000/svg">
<path d="M54.9258 1.69965H60.5977L70.242 19.1455L79.8863 1.69965H85.4354V30.3665H80.8078V8.39553L72.3511 23.6094H68.0101L59.5534 8.39553V30.3665H54.9258V1.69965Z" fill="white"/>
<path d="M100.362 30.8792C98.2189 30.8792 96.3351 30.4048 94.7108 29.4561C93.0862 28.5074 91.8201 27.1935 90.9125 25.5144C90.0045 23.8353 89.5506 21.9105 89.5508 19.7401C89.5508 17.5424 89.9944 15.5971 90.8817 13.9043C91.769 12.2118 93.001 10.8877 94.5777 9.93178C96.1545 8.9765 97.9666 8.49873 100.014 8.49847C102.048 8.49847 103.799 8.97964 105.266 9.94198C106.734 10.9046 107.863 12.2526 108.655 13.9862C109.447 15.72 109.843 17.7539 109.843 20.0882V21.3575H94.1375C94.4242 23.1052 95.1307 24.4805 96.2568 25.4835C97.383 26.4869 98.8061 26.9886 100.526 26.9885C101.905 26.9885 103.092 26.7837 104.089 26.3742C105.085 25.9647 106.02 25.3436 106.894 24.511L109.351 27.5209C106.908 29.76 103.911 30.8794 100.362 30.8792ZM103.741 13.8735C102.771 12.8839 101.502 12.3891 99.9323 12.3889C98.4033 12.3889 97.1235 12.894 96.093 13.9043C95.0621 14.9145 94.4103 16.2728 94.1375 17.9791H105.399C105.263 16.2317 104.71 14.8632 103.741 13.8735Z" fill="white"/>
<path d="M115.453 12.7984H111.193V9.01024H115.453V2.74457H119.916V9.01024H126.387V12.7984H119.916V22.4017C119.916 23.9988 120.189 25.1386 120.735 25.8212C121.281 26.504 122.216 26.8452 123.541 26.845C124.127 26.845 124.626 26.8211 125.035 26.7733C125.445 26.7257 125.895 26.6609 126.387 26.5788V30.3259C125.826 30.4881 125.255 30.6113 124.677 30.6946C124.016 30.7919 123.349 30.8398 122.681 30.8379C117.862 30.8379 115.452 28.2033 115.453 22.9341V12.7984Z" fill="white"/>
<path d="M149.649 30.3672H145.267V27.3776C144.489 28.4972 143.499 29.3605 142.298 29.9678C141.097 30.5751 139.732 30.8789 138.203 30.8792C136.319 30.8792 134.65 30.398 133.196 29.4354C131.743 28.4731 130.599 27.149 129.767 25.4632C128.934 23.7772 128.518 21.8491 128.518 19.6786C128.518 17.4945 128.941 15.5629 129.787 13.8837C130.633 12.2048 131.804 10.8875 133.299 9.93178C134.794 8.9765 136.51 8.49873 138.449 8.49847C139.909 8.49847 141.22 8.78176 142.38 9.34835C143.525 9.90207 144.516 10.7282 145.267 11.7542V9.01049H149.649V30.3672ZM145.185 16.4843C144.707 15.2694 143.953 14.3103 142.923 13.6072C141.892 12.9043 140.701 12.5528 139.35 12.5528C137.438 12.5528 135.916 13.1944 134.783 14.4775C133.65 15.7607 133.084 17.4944 133.084 19.6786C133.084 21.8766 133.63 23.6171 134.722 24.9001C135.814 26.1833 137.295 26.8249 139.165 26.8248C140.544 26.8248 141.772 26.4699 142.851 25.76C143.929 25.0505 144.707 24.0949 145.185 22.8933L145.185 16.4843Z" fill="white"/>
<path d="M4.90304 20.6302C4.90304 22.3635 5.28349 23.6942 5.78073 24.4993C6.43269 25.5538 7.40508 26.0005 8.39643 26.0005C9.67507 26.0005 10.8448 25.6832 13.099 22.5655C14.9049 20.0667 17.0328 16.5591 18.4646 14.3601L20.8893 10.6347C22.5736 8.04744 24.5231 5.17126 26.7584 3.22172C28.5832 1.63053 30.5517 0.746521 32.5328 0.746521C35.8589 0.746521 39.0271 2.67395 41.4517 6.28889C44.1053 10.248 45.3935 15.2347 45.3935 20.3808C45.3935 23.4401 44.7904 25.688 43.7644 27.4639C42.773 29.1814 40.8408 30.8973 37.5906 30.8973V26.0005C40.3736 26.0005 41.0682 23.4432 41.0682 20.5166C41.0682 16.346 40.0958 11.7176 37.9536 8.41049C36.4335 6.06474 34.4634 4.63138 32.296 4.63138C29.9519 4.63138 28.0655 6.39938 25.9454 9.5518C24.8183 11.2267 23.6612 13.2678 22.3621 15.5709L20.9319 18.1045C18.0589 23.1986 17.3312 24.3588 15.8947 26.2736C13.3768 29.6265 11.2268 30.8973 8.39643 30.8973C5.0388 30.8973 2.91562 29.4434 1.60067 27.2524C0.527238 25.467 0 23.1244 0 20.455L4.90304 20.6302Z" fill="white"/>
<path d="M3.86523 6.63458C6.11312 3.16962 9.35709 0.746521 13.0778 0.746521C15.2325 0.746521 17.3747 1.38427 19.6115 3.21068C22.0583 5.20758 24.6661 8.49575 27.9195 13.915L29.0861 15.8598C31.9023 20.5513 33.5045 22.9649 34.4422 24.1031C35.6482 25.5648 36.4928 26.0005 37.5899 26.0005C40.3729 26.0005 41.0675 23.4432 41.0675 20.5166L45.3928 20.3808C45.3928 23.4401 44.7897 25.688 43.7637 27.4639C42.7723 29.1814 40.8402 30.8973 37.5899 30.8973C35.5693 30.8973 33.7792 30.4584 31.7997 28.591C30.2779 27.1576 28.4989 24.6114 27.1302 22.3225L23.0591 15.522C21.0164 12.1091 19.1427 9.56442 18.0582 8.41207C16.8916 7.17289 15.392 5.6764 12.9989 5.6764C11.0619 5.6764 9.41708 7.03556 8.04056 9.11454L3.86523 6.63458Z" fill="white"/>
<path d="M12.9995 5.6764C11.0626 5.6764 9.41777 7.03556 8.04125 9.11454C6.09486 12.0523 4.90304 16.4281 4.90304 20.6302C4.90304 22.3635 5.28349 23.6942 5.78073 24.4993L1.60067 27.2524C0.527238 25.467 0 23.1244 0 20.455C0 15.6009 1.33231 10.5416 3.86592 6.63458C6.11381 3.16962 9.35778 0.746521 13.0785 0.746521L12.9995 5.6764Z" fill="white"/>
</svg>
